<svg xmlns="http://www.w3.org/2000/svg" width="32" height="32" viewBox="0 0 138.5 138.5">
  <circle cx="44.7" cy="10.2" r="4.2" fill="#2DC5D3" opacity="0.9"/>
  <circle cx="56.2" cy="10.2" r="4.2" fill="#2DC5D3" opacity="0.9"/>
  <circle cx="67.7" cy="10.2" r="4.2" fill="#2DC5D3" opacity="0.9"/>
  <circle cx="79.2" cy="10.2" r="4.2" fill="#2DC5D3" opacity="0.9"/>
  <circle cx="90.7" cy="10.2" r="4.2" fill="#2DC5D3" opacity="0.9"/>
  <circle cx="44.7" cy="21.7" r="4.2" fill="#5DD8E2" opacity="0.9"/>
  <circle cx="56.2" cy="21.7" r="4.2" fill="#5DD8E2" opacity="0.9"/>
  <circle cx="67.7" cy="21.7" r="4.2" fill="#5DD8E2" opacity="0.9"/>
  <circle cx="79.2" cy="21.7" r="4.2" fill="#5DD8E2" opacity="0.9"/>
  <circle cx="90.7" cy="21.7" r="4.2" fill="#5DD8E2" opacity="0.9"/>
  <circle cx="44.7" cy="33.2" r="4.2" fill="#5DD8E2" opacity="0.9"/>
  <circle cx="56.2" cy="33.2" r="4.2" fill="#8DE8EE" opacity="0.9"/>
  <circle cx="67.7" cy="33.2" r="4.2" fill="#8DE8EE" opacity="0.9"/>
  <circle cx="79.2" cy="33.2" r="4.2" fill="#8DE8EE" opacity="0.9"/>
  <circle cx="90.7" cy="33.2" r="4.2" fill="#5DD8E2" opacity="0.9"/>
  <circle cx="10.2" cy="44.7" r="4.2" fill="#2DC5D3" opacity="0.9"/>
  <circle cx="21.7" cy="44.7" r="4.2" fill="#5DD8E2" opacity="0.9"/>
  <circle cx="33.2" cy="44.7" r="4.2" fill="#5DD8E2" opacity="0.9"/>
  <circle cx="44.7" cy="44.7" r="4.2" fill="#8DE8EE" opacity="0.9"/>
  <circle cx="56.2" cy="44.7" r="4.2" fill="#B5F0F5" opacity="0.9"/>
  <circle cx="67.7" cy="44.7" r="4.2" fill="#B5F0F5" opacity="0.9"/>
  <circle cx="79.2" cy="44.7" r="4.2" fill="#B5F0F5" opacity="0.9"/>
  <circle cx="90.7" cy="44.7" r="4.2" fill="#8DE8EE" opacity="0.9"/>
  <circle cx="102.2" cy="44.7" r="4.2" fill="#5DD8E2" opacity="0.9"/>
  <circle cx="113.7" cy="44.7" r="4.2" fill="#5DD8E2" opacity="0.9"/>
  <circle cx="125.2" cy="44.7" r="4.2" fill="#2DC5D3" opacity="0.9"/>
  <circle cx="10.2" cy="56.2" r="4.2" fill="#2DC5D3" opacity="0.9"/>
  <circle cx="21.7" cy="56.2" r="4.2" fill="#5DD8E2" opacity="0.9"/>
  <circle cx="33.2" cy="56.2" r="4.2" fill="#8DE8EE" opacity="0.9"/>
  <circle cx="44.7" cy="56.2" r="4.2" fill="#B5F0F5" opacity="0.9"/>
  <circle cx="56.2" cy="56.2" r="4.2" fill="#B5F0F5" opacity="0.9"/>
  <circle cx="67.7" cy="56.2" r="4.2" fill="#D6F7FA" opacity="0.9"/>
  <circle cx="79.2" cy="56.2" r="4.2" fill="#B5F0F5" opacity="0.9"/>
  <circle cx="90.7" cy="56.2" r="4.2" fill="#B5F0F5" opacity="0.9"/>
  <circle cx="102.2" cy="56.2" r="4.2" fill="#8DE8EE" opacity="0.9"/>
  <circle cx="113.7" cy="56.2" r="4.2" fill="#5DD8E2" opacity="0.9"/>
  <circle cx="125.2" cy="56.2" r="4.2" fill="#2DC5D3" opacity="0.9"/>
  <circle cx="10.2" cy="67.7" r="4.2" fill="#2DC5D3" opacity="0.9"/>
  <circle cx="21.7" cy="67.7" r="4.2" fill="#5DD8E2" opacity="0.9"/>
  <circle cx="33.2" cy="67.7" r="4.2" fill="#8DE8EE" opacity="0.9"/>
  <circle cx="44.7" cy="67.7" r="4.2" fill="#B5F0F5" opacity="0.9"/>
  <circle cx="56.2" cy="67.7" r="4.2" fill="#D6F7FA" opacity="0.9"/>
  <circle cx="67.7" cy="67.7" r="4.2" fill="#D6F7FA" opacity="0.9"/>
  <circle cx="79.2" cy="67.7" r="4.2" fill="#D6F7FA" opacity="0.9"/>
  <circle cx="90.7" cy="67.7" r="4.2" fill="#B5F0F5" opacity="0.9"/>
  <circle cx="102.2" cy="67.7" r="4.2" fill="#8DE8EE" opacity="0.9"/>
  <circle cx="113.7" cy="67.7" r="4.2" fill="#5DD8E2" opacity="0.9"/>
  <circle cx="125.2" cy="67.7" r="4.2" fill="#2DC5D3" opacity="0.9"/>
  <circle cx="10.2" cy="79.2" r="4.2" fill="#2DC5D3" opacity="0.9"/>
  <circle cx="21.7" cy="79.2" r="4.2" fill="#5DD8E2" opacity="0.9"/>
  <circle cx="33.2" cy="79.2" r="4.2" fill="#8DE8EE" opacity="0.9"/>
  <circle cx="44.7" cy="79.2" r="4.2" fill="#B5F0F5" opacity="0.9"/>
  <circle cx="56.2" cy="79.2" r="4.2" fill="#B5F0F5" opacity="0.9"/>
  <circle cx="67.7" cy="79.2" r="4.2" fill="#D6F7FA" opacity="0.9"/>
  <circle cx="79.2" cy="79.2" r="4.2" fill="#B5F0F5" opacity="0.9"/>
  <circle cx="90.7" cy="79.2" r="4.2" fill="#B5F0F5" opacity="0.9"/>
  <circle cx="102.2" cy="79.2" r="4.2" fill="#8DE8EE" opacity="0.9"/>
  <circle cx="113.7" cy="79.2" r="4.2" fill="#5DD8E2" opacity="0.9"/>
  <circle cx="125.2" cy="79.2" r="4.2" fill="#2DC5D3" opacity="0.9"/>
  <circle cx="10.2" cy="90.7" r="4.2" fill="#2DC5D3" opacity="0.9"/>
  <circle cx="21.7" cy="90.7" r="4.2" fill="#5DD8E2" opacity="0.9"/>
  <circle cx="33.2" cy="90.7" r="4.2" fill="#5DD8E2" opacity="0.9"/>
  <circle cx="44.7" cy="90.7" r="4.2" fill="#8DE8EE" opacity="0.9"/>
  <circle cx="56.2" cy="90.7" r="4.2" fill="#B5F0F5" opacity="0.9"/>
  <circle cx="67.7" cy="90.7" r="4.2" fill="#B5F0F5" opacity="0.9"/>
  <circle cx="79.2" cy="90.7" r="4.2" fill="#B5F0F5" opacity="0.9"/>
  <circle cx="90.7" cy="90.7" r="4.2" fill="#8DE8EE" opacity="0.9"/>
  <circle cx="102.2" cy="90.7" r="4.2" fill="#5DD8E2" opacity="0.9"/>
  <circle cx="113.7" cy="90.7" r="4.2" fill="#5DD8E2" opacity="0.9"/>
  <circle cx="125.2" cy="90.7" r="4.2" fill="#2DC5D3" opacity="0.9"/>
  <circle cx="44.7" cy="102.2" r="4.2" fill="#5DD8E2" opacity="0.9"/>
  <circle cx="56.2" cy="102.2" r="4.2" fill="#8DE8EE" opacity="0.9"/>
  <circle cx="67.7" cy="102.2" r="4.2" fill="#8DE8EE" opacity="0.9"/>
  <circle cx="79.2" cy="102.2" r="4.2" fill="#8DE8EE" opacity="0.9"/>
  <circle cx="90.7" cy="102.2" r="4.2" fill="#5DD8E2" opacity="0.9"/>
  <circle cx="44.7" cy="113.7" r="4.2" fill="#5DD8E2" opacity="0.9"/>
  <circle cx="56.2" cy="113.7" r="4.2" fill="#5DD8E2" opacity="0.9"/>
  <circle cx="67.7" cy="113.7" r="4.2" fill="#5DD8E2" opacity="0.9"/>
  <circle cx="79.2" cy="113.7" r="4.2" fill="#5DD8E2" opacity="0.9"/>
  <circle cx="90.7" cy="113.7" r="4.2" fill="#5DD8E2" opacity="0.9"/>
  <circle cx="44.7" cy="125.2" r="4.2" fill="#2DC5D3" opacity="0.9"/>
  <circle cx="56.2" cy="125.2" r="4.2" fill="#2DC5D3" opacity="0.9"/>
  <circle cx="67.7" cy="125.2" r="4.2" fill="#2DC5D3" opacity="0.9"/>
  <circle cx="79.2" cy="125.2" r="4.2" fill="#2DC5D3" opacity="0.9"/>
  <circle cx="90.7" cy="125.2" r="4.2" fill="#2DC5D3" opacity="0.9"/>
</svg>