<svg xmlns="http://www.w3.org/2000/svg" width="150" height="52" viewBox="0 0 150 52"><path d="M17.337 16.918c4.145-1.172 10.678-1.843 18.74-2.14V.428a.36.36 0 00-.291-.429H.369a.37.37 0 00-.367.364.243.243 0 000 .066v25.92c.009.17.067.335.166.474l4.76 3.887c-.01-5.195 2.502-11.02 12.41-13.792zm4.92 27.948L31.008 52v-7.386h5.036V20.002c-2.846.39-5.663.96-8.436 1.707-9.847 2.741-8.346 14.105-5.35 23.157zM43.16 14.365V0h15.207c8.672 0 14.51 5.518 14.51 13.716v1.243a772.521 772.521 0 00-12.014-.436v-.96c0-2.527-1.009-3.83-3.353-3.83h-2.34v4.661c-4.2-.074-8.223-.094-12.01-.03zm17.703 23.721c0 2.595-1.009 4.014-3.353 4.014h-2.34V18.144c-4.3.183-8.329.443-12.01.789V52h15.207c8.657 0 14.51-4.721 14.51-13.14V17.807c-4.15 0-8.168.046-12.014.143v20.135zm44.432-20.512c3.885.304 7.715.623 11.45.947V0h-15.47l-2.926 17.055c2.315.164 4.625.34 6.91.514l.036.005zm-7.881 3.056l-1.242 9.067-1.246-9.067-.342-1.849a723.09 723.09 0 00-8.263-.26l1.684 11.487L91.583 52h7.464l3.89-22.007 1.78-10.776c-2.346-.12-4.678-.229-6.997-.326l-.306 1.739zM105.425 52h11.32V19.92a602.886 602.886 0 00-11.32-.687V52zm-29.717 0H86.32V17.981a598.21 598.21 0 00-10.613-.173V52zM91.14 0H75.709v15.3c6.06.296 12.247.667 18.396 1.084L91.14 0zm38.458 0h-12.145l3.7 18.888c3.86.349 7.595.703 11.158 1.057L129.598 0zm3.972 31.491l-1.47-10.634c-3.65-.338-7.352-.642-11.11-.912L127.4 52h11.563l6.085-29.877c-3.252-.338-6.574-.675-9.968-1.013l-1.51 10.381zM150 0h-11.272l-2.879 19.615c3.493.353 6.841.7 9.91 1.043L150 0z" fill="#FFF"/></svg>